<svg xmlns="http://www.w3.org/2000/svg" width="125.43" height="78.39" viewBox="0 0 125.43 78.39"><rect width="125.43" height="78.39" rx="4.18" fill="#f9f9f9"/><g transform="translate(25 26.136)"><g transform="translate(0 5.553)"><path d="M10.588,9.25H.222v3.332H7.034a.742.742,0,0,1,.74.74v5.849H6.294a.742.742,0,0,1-.74-.74v-4.22H2.666A2.654,2.654,0,0,0,0,16.876v2.962A2.654,2.654,0,0,0,2.666,22.5H13.254V11.916A2.654,2.654,0,0,0,10.588,9.25Z" transform="translate(0 -9.25)" fill="#35b454"/></g><g transform="translate(15.475)"><path d="M33.551,15.475H32.07a.742.742,0,0,1-.74-.74V5.553H28.442a2.654,2.654,0,0,0-2.666,2.666v7.923a2.654,2.654,0,0,0,2.666,2.666H39.03V0H33.477Z" transform="translate(-25.777)" fill="#35b454"/></g><g transform="translate(30.95 5.553)"><path d="M59.328,19.172H57.847a.742.742,0,0,1-.74-.74V9.25H51.553V19.838A2.654,2.654,0,0,0,54.219,22.5h5.109v1.629H51.775v3.85h10.44a2.654,2.654,0,0,0,2.666-2.666V9.25H59.328Z" transform="translate(-51.553 -9.25)" fill="#35b454"/></g><g transform="translate(46.424 5.553)"><path d="M87.992,9.25H77.33V19.838A2.654,2.654,0,0,0,80,22.5h10.44V19.172H83.624a.742.742,0,0,1-.74-.74V12.582h1.481a.742.742,0,0,1,.74.74v4.22h2.888a2.654,2.654,0,0,0,2.666-2.666V11.916A2.654,2.654,0,0,0,87.992,9.25Z" transform="translate(-77.33 -9.25)" fill="#35b454"/></g><g transform="translate(61.973 5.553)"><path d="M113.818,9.25H103.23V22.5h5.553V12.582h1.481a.742.742,0,0,1,.74.74V22.5h5.553V11.916A2.767,2.767,0,0,0,113.818,9.25Z" transform="translate(-103.23 -9.25)" fill="#35b454"/></g></g></svg>